<svg id="Camada_1" 
    height="42.5px"
    data-name="Camada 1" 
    xmlns="http://www.w3.org/2000/svg" 
    viewBox="0 0 561.45 147.4">
        <defs>
            <style>.cls-1,.cls-3{fill:#fff;}.cls-2,.cls-3{font-size:76.74px;font-family:Impact;}.cls-2,.cls-4{fill:#211915;}.cls-4{font-size:36px;font-family:ComicSansMS-Bold, Comic Sans MS;font-weight:700;}</style>
        </defs>

        <path class="cls-1" d="M129.89,92.32c8.17-6.13,6.64-16.92,6.64-16.92.51-16.92-13.27-17.29-13.27-17.29-15.32-1-15.32,22.19-15.32,22.19-12.26-12-30.64-4.9-30.64-4.9,13.79-21,0-38.23,0-38.23-13.79-12.26-23,.51-23,.51-11.23,9.7-4.09,32.68-4.09,32.68H47.17C18.57,59.13,30.83,27.47,30.83,27.47c5.11-14.81-4.6-15.83-4.6-15.83C19.6,10.11,17,21.85,17,21.85V41.26c1,36.76,27.58,43.91,27.58,43.91C30.32,106.11,34.4,139.3,34.4,139.3l4.09,4.08,43.91-.51c-2-13.78-2-31.66-2-31.66,12.77-12.25,20.43-7.66,20.43-7.66a123.53,123.53,0,0,0-2.56,51.58c13.28-10.73,32.68-7.15,32.68-7.15l-1.53-41.36c14.3,4.59,18.9,35.74,18.9,35.74H159C153.89,92.83,129.89,92.32,129.89,92.32ZM77.26,99.45V88.21s9.7-7.15,23,0C100.23,88.21,81.34,92.81,77.26,99.45Z" transform="translate(-17.04 -7.73)"/>
        <text class="cls-2" transform="translate(190.91 71.87) scale(1.35 1)">Auxilium</text>
        <text class="cls-3" transform="translate(184.36 68.71) scale(1.35 1)">Auxilium</text>
        <text class="cls-4" transform="translate(190.29 130.26) scale(1.15 1)">Mais que uma vida</text>
</svg>